<svg width="45" height="21" viewBox="0 0 45 21" fill="none" xmlns="http://www.w3.org/2000/svg">
<path d="M4 5.00244L0 10V15.9954C3 15.9954 1.5 16 4 15.9954V5.00244Z" fill="white"/>
<path d="M5.86719 16V4.72656H8.22656V16H5.86719ZM9.45438 16V7.39844H11.7356V8.72656H11.8763C12.0742 8.25781 12.3815 7.88802 12.7981 7.61719C13.2148 7.34635 13.7304 7.21094 14.345 7.21094C15.3033 7.21094 16.0325 7.49219 16.5325 8.05469C17.0377 8.61198 17.2903 9.40625 17.2903 10.4375V16H15.0091V10.9531C15.0091 10.3438 14.8815 9.88281 14.6263 9.57031C14.371 9.25781 13.9726 9.10156 13.4309 9.10156C13.082 9.10156 12.7799 9.18229 12.5247 9.34375C12.2747 9.5 12.0794 9.72135 11.9388 10.0078C11.8033 10.2943 11.7356 10.6328 11.7356 11.0234V16H9.45438ZM21.2916 16.1328C20.578 16.1328 19.9582 15.9557 19.4322 15.6016C18.9114 15.2422 18.5077 14.7318 18.2213 14.0703C17.94 13.4089 17.7994 12.6198 17.7994 11.7031V11.6875C17.7994 10.7656 17.9374 9.97396 18.2134 9.3125C18.4947 8.65104 18.8957 8.14323 19.4166 7.78906C19.9374 7.4349 20.5624 7.25781 21.2916 7.25781C21.8801 7.25781 22.4009 7.39323 22.8541 7.66406C23.3124 7.9349 23.6483 8.30469 23.8619 8.77344H24.0025V4.10938H26.2838V16H24.0025V14.6641H23.8619C23.6431 15.1276 23.3124 15.4896 22.8697 15.75C22.427 16.0052 21.9009 16.1328 21.2916 16.1328ZM22.065 14.2422C22.4713 14.2422 22.8202 14.1406 23.1119 13.9375C23.4035 13.7344 23.6275 13.4427 23.7838 13.0625C23.9452 12.6823 24.0259 12.2318 24.0259 11.7109V11.6953C24.0259 11.1641 23.9452 10.7109 23.7838 10.3359C23.6275 9.95573 23.4009 9.66406 23.1041 9.46094C22.8124 9.2526 22.466 9.14844 22.065 9.14844C21.6692 9.14844 21.3228 9.2526 21.0259 9.46094C20.7343 9.66406 20.5103 9.95573 20.3541 10.3359C20.1978 10.7109 20.1197 11.1615 20.1197 11.6875V11.7031C20.1197 12.2292 20.1978 12.6823 20.3541 13.0625C20.5103 13.4427 20.7343 13.7344 21.0259 13.9375C21.3176 14.1406 21.664 14.2422 22.065 14.2422ZM30.2069 16.1797C29.5662 16.1797 29.0272 16.0547 28.5897 15.8047C28.1574 15.5547 27.8319 15.1901 27.6131 14.7109C27.3944 14.2266 27.285 13.6432 27.285 12.9609V7.39844H29.5662V12.4375C29.5662 13.0469 29.686 13.5078 29.9256 13.8203C30.1704 14.1328 30.5636 14.2891 31.1053 14.2891C31.4803 14.2891 31.7954 14.2109 32.0506 14.0547C32.311 13.8932 32.5064 13.6693 32.6366 13.3828C32.772 13.0911 32.8397 12.7526 32.8397 12.3672V7.39844H35.1209V16H32.8397V14.6719H32.6991C32.5064 15.1406 32.1965 15.5104 31.7694 15.7812C31.3423 16.0469 30.8215 16.1797 30.2069 16.1797ZM35.505 16L38.2003 11.7422L35.4816 7.39844H38.0988L39.6222 10.25H39.7628L41.2863 7.39844H43.7706L41.0597 11.6484L43.7863 16H41.2628L39.6534 13.1562H39.5128L37.9113 16H35.505Z" fill="url(#paint0_linear_5323_154)"/>
<defs>
<linearGradient id="paint0_linear_5323_154" x1="4.5" y1="10.5" x2="44.5" y2="10.5" gradientUnits="userSpaceOnUse">
<stop stop-color="white"/>
<stop offset="1" stop-color="#DEE2E2"/>
</linearGradient>
</defs>
</svg>
